<mxfile host="app.diagrams.net" agent="Mozilla/5.0 (Windows NT 10.0; Win64; x64) AppleWebKit/537.36 (KHTML, like Gecko) Chrome/138.0.0.0 Safari/537.36" version="28.0.7">
  <diagram name="Page-1" id="vrgShVDsipBbOrzq9zas">
    <mxGraphModel dx="5964" dy="2576" grid="1" gridSize="10" guides="1" tooltips="1" connect="1" arrows="1" fold="1" page="1" pageScale="1" pageWidth="850" pageHeight="1100" math="0" shadow="0">
      <root>
        <mxCell id="0" />
        <mxCell id="1" parent="0" />
        <mxCell id="D-juihw1H2fN2JaXZUQW-1" style="edgeStyle=orthogonalEdgeStyle;rounded=0;orthogonalLoop=1;jettySize=auto;html=1;entryX=0.5;entryY=0;entryDx=0;entryDy=0;" edge="1" parent="1" source="D-juihw1H2fN2JaXZUQW-2" target="D-juihw1H2fN2JaXZUQW-3">
          <mxGeometry relative="1" as="geometry" />
        </mxCell>
        <mxCell id="D-juihw1H2fN2JaXZUQW-2" value="&lt;font style=&quot;font-size: 18px;&quot;&gt;เริ่ม&lt;/font&gt;" style="ellipse;whiteSpace=wrap;html=1;" vertex="1" parent="1">
          <mxGeometry x="493" y="190" width="120" height="60" as="geometry" />
        </mxCell>
        <mxCell id="D-juihw1H2fN2JaXZUQW-3" value="&lt;font style=&quot;font-size: 18px;&quot;&gt;ประกาศ&lt;/font&gt;&lt;div&gt;&lt;font style=&quot;font-size: 18px;&quot;&gt;ตัวแปร N = 0&lt;/font&gt;&lt;/div&gt;" style="shape=parallelogram;perimeter=parallelogramPerimeter;whiteSpace=wrap;html=1;fixedSize=1;" vertex="1" parent="1">
          <mxGeometry x="493" y="300" width="120" height="60" as="geometry" />
        </mxCell>
        <mxCell id="D-juihw1H2fN2JaXZUQW-4" style="edgeStyle=orthogonalEdgeStyle;rounded=0;orthogonalLoop=1;jettySize=auto;html=1;exitX=0.5;exitY=1;exitDx=0;exitDy=0;entryX=0.5;entryY=0;entryDx=0;entryDy=0;" edge="1" parent="1" source="D-juihw1H2fN2JaXZUQW-10">
          <mxGeometry relative="1" as="geometry">
            <mxPoint x="556.2499999999998" y="1250" as="targetPoint" />
          </mxGeometry>
        </mxCell>
        <mxCell id="D-juihw1H2fN2JaXZUQW-5" value="จริง" style="edgeLabel;html=1;align=center;verticalAlign=middle;resizable=0;points=[];" vertex="1" connectable="0" parent="D-juihw1H2fN2JaXZUQW-4">
          <mxGeometry x="-0.1944" y="-2" relative="1" as="geometry">
            <mxPoint as="offset" />
          </mxGeometry>
        </mxCell>
        <mxCell id="D-juihw1H2fN2JaXZUQW-6" value="จริง" style="edgeLabel;html=1;align=center;verticalAlign=middle;resizable=0;points=[];" vertex="1" connectable="0" parent="D-juihw1H2fN2JaXZUQW-4">
          <mxGeometry x="-0.2222" y="-3" relative="1" as="geometry">
            <mxPoint as="offset" />
          </mxGeometry>
        </mxCell>
        <mxCell id="D-juihw1H2fN2JaXZUQW-7" value="&lt;font style=&quot;font-size: 16px;&quot;&gt;จริง&lt;/font&gt;" style="edgeLabel;html=1;align=center;verticalAlign=middle;resizable=0;points=[];" vertex="1" connectable="0" parent="D-juihw1H2fN2JaXZUQW-4">
          <mxGeometry x="-0.25" y="-1" relative="1" as="geometry">
            <mxPoint as="offset" />
          </mxGeometry>
        </mxCell>
        <mxCell id="D-juihw1H2fN2JaXZUQW-8" style="edgeStyle=orthogonalEdgeStyle;rounded=0;orthogonalLoop=1;jettySize=auto;html=1;exitX=1;exitY=0.5;exitDx=0;exitDy=0;entryX=0.5;entryY=0;entryDx=0;entryDy=0;" edge="1" parent="1" source="D-juihw1H2fN2JaXZUQW-10">
          <mxGeometry relative="1" as="geometry">
            <mxPoint x="790" y="1250" as="targetPoint" />
          </mxGeometry>
        </mxCell>
        <mxCell id="D-juihw1H2fN2JaXZUQW-9" value="เท็จ" style="edgeLabel;html=1;align=center;verticalAlign=middle;resizable=0;points=[];fontSize=16;" vertex="1" connectable="0" parent="D-juihw1H2fN2JaXZUQW-8">
          <mxGeometry x="-0.3819" relative="1" as="geometry">
            <mxPoint as="offset" />
          </mxGeometry>
        </mxCell>
        <mxCell id="D-juihw1H2fN2JaXZUQW-10" value="&lt;span style=&quot;font-size: 14px;&quot;&gt;N หาร 2 เหลือเศษ&amp;nbsp;&lt;/span&gt;&lt;div&gt;&lt;span style=&quot;font-size: 14px;&quot;&gt;1&amp;nbsp;&lt;/span&gt;&lt;span style=&quot;font-size: 14px; background-color: transparent; color: light-dark(rgb(0, 0, 0), rgb(255, 255, 255));&quot;&gt;ใช่หรือไม่&lt;/span&gt;&lt;/div&gt;" style="rhombus;whiteSpace=wrap;html=1;" vertex="1" parent="1">
          <mxGeometry x="483.75" y="1060" width="132.5" height="100" as="geometry" />
        </mxCell>
        <mxCell id="D-juihw1H2fN2JaXZUQW-11" style="edgeStyle=orthogonalEdgeStyle;rounded=0;orthogonalLoop=1;jettySize=auto;html=1;entryX=0.5;entryY=0;entryDx=0;entryDy=0;" edge="1" parent="1">
          <mxGeometry relative="1" as="geometry">
            <mxPoint x="556.2962962962961" y="1310" as="sourcePoint" />
            <mxPoint x="556.25" y="1410" as="targetPoint" />
          </mxGeometry>
        </mxCell>
        <mxCell id="D-juihw1H2fN2JaXZUQW-12" style="edgeStyle=orthogonalEdgeStyle;rounded=0;orthogonalLoop=1;jettySize=auto;html=1;" edge="1" parent="1">
          <mxGeometry relative="1" as="geometry">
            <mxPoint x="789.9999999999998" y="1310" as="sourcePoint" />
            <mxPoint x="790" y="1410" as="targetPoint" />
          </mxGeometry>
        </mxCell>
        <mxCell id="D-juihw1H2fN2JaXZUQW-13" value="&lt;font style=&quot;font-size: 18px;&quot;&gt;ประกาศ&lt;/font&gt;&lt;div&gt;&lt;font style=&quot;font-size: 18px;&quot;&gt;ตัวแปร i&lt;/font&gt;&lt;/div&gt;" style="shape=parallelogram;perimeter=parallelogramPerimeter;whiteSpace=wrap;html=1;fixedSize=1;" vertex="1" parent="1">
          <mxGeometry x="496.25" y="1250" width="120" height="60" as="geometry" />
        </mxCell>
        <mxCell id="D-juihw1H2fN2JaXZUQW-14" value="&lt;font style=&quot;font-size: 18px;&quot;&gt;ประกาศ&lt;/font&gt;&lt;div&gt;&lt;font style=&quot;font-size: 18px;&quot;&gt;ตัวแปร i&lt;/font&gt;&lt;/div&gt;" style="shape=parallelogram;perimeter=parallelogramPerimeter;whiteSpace=wrap;html=1;fixedSize=1;" vertex="1" parent="1">
          <mxGeometry x="730" y="1250" width="120" height="60" as="geometry" />
        </mxCell>
        <mxCell id="D-juihw1H2fN2JaXZUQW-15" value="&lt;span style=&quot;font-size: 17px;&quot;&gt;i = 1&lt;/span&gt;" style="rounded=0;whiteSpace=wrap;html=1;" vertex="1" parent="1">
          <mxGeometry x="496.25" y="1410" width="120" height="60" as="geometry" />
        </mxCell>
        <mxCell id="D-juihw1H2fN2JaXZUQW-16" style="edgeStyle=orthogonalEdgeStyle;rounded=0;orthogonalLoop=1;jettySize=auto;html=1;entryX=0.5;entryY=0;entryDx=0;entryDy=0;" edge="1" parent="1" source="D-juihw1H2fN2JaXZUQW-17" target="D-juihw1H2fN2JaXZUQW-32">
          <mxGeometry relative="1" as="geometry" />
        </mxCell>
        <mxCell id="D-juihw1H2fN2JaXZUQW-17" value="&lt;span style=&quot;font-size: 17px;&quot;&gt;i = 0&lt;/span&gt;" style="rounded=0;whiteSpace=wrap;html=1;" vertex="1" parent="1">
          <mxGeometry x="730" y="1410" width="120" height="60" as="geometry" />
        </mxCell>
        <mxCell id="D-juihw1H2fN2JaXZUQW-18" value="&lt;span style=&quot;font-size: 18px;&quot;&gt;จบ&lt;/span&gt;" style="ellipse;whiteSpace=wrap;html=1;" vertex="1" parent="1">
          <mxGeometry x="600" y="2250" width="120" height="60" as="geometry" />
        </mxCell>
        <mxCell id="D-juihw1H2fN2JaXZUQW-19" style="edgeStyle=orthogonalEdgeStyle;rounded=0;orthogonalLoop=1;jettySize=auto;html=1;exitX=1;exitY=0.5;exitDx=0;exitDy=0;" edge="1" parent="1" source="D-juihw1H2fN2JaXZUQW-21">
          <mxGeometry relative="1" as="geometry">
            <mxPoint x="660" y="2140" as="targetPoint" />
          </mxGeometry>
        </mxCell>
        <mxCell id="D-juihw1H2fN2JaXZUQW-20" value="เท็จ" style="edgeLabel;html=1;align=center;verticalAlign=middle;resizable=0;points=[];" vertex="1" connectable="0" parent="D-juihw1H2fN2JaXZUQW-19">
          <mxGeometry x="-0.2432" y="2" relative="1" as="geometry">
            <mxPoint as="offset" />
          </mxGeometry>
        </mxCell>
        <mxCell id="D-juihw1H2fN2JaXZUQW-21" value="&lt;span style=&quot;font-size: 14px;&quot;&gt;i &amp;lt;= N ใช่หรือไม่&lt;/span&gt;" style="rhombus;whiteSpace=wrap;html=1;" vertex="1" parent="1">
          <mxGeometry x="490" y="1570" width="132.5" height="100" as="geometry" />
        </mxCell>
        <mxCell id="D-juihw1H2fN2JaXZUQW-22" style="edgeStyle=orthogonalEdgeStyle;rounded=0;orthogonalLoop=1;jettySize=auto;html=1;entryX=1;entryY=0.5;entryDx=0;entryDy=0;" edge="1" parent="1" source="D-juihw1H2fN2JaXZUQW-24" target="D-juihw1H2fN2JaXZUQW-38">
          <mxGeometry relative="1" as="geometry">
            <mxPoint x="900" y="2180" as="targetPoint" />
            <Array as="points">
              <mxPoint x="900" y="1620" />
              <mxPoint x="900" y="2150" />
            </Array>
          </mxGeometry>
        </mxCell>
        <mxCell id="D-juihw1H2fN2JaXZUQW-23" value="เท็จ" style="edgeLabel;html=1;align=center;verticalAlign=middle;resizable=0;points=[];" vertex="1" connectable="0" parent="D-juihw1H2fN2JaXZUQW-22">
          <mxGeometry x="-0.5533" y="1" relative="1" as="geometry">
            <mxPoint as="offset" />
          </mxGeometry>
        </mxCell>
        <mxCell id="D-juihw1H2fN2JaXZUQW-24" value="&lt;span style=&quot;font-size: 14px;&quot;&gt;i &amp;gt;= 0&amp;nbsp;&lt;/span&gt;&lt;span style=&quot;font-size: 14px;&quot;&gt;ใช่หรือไม่&lt;/span&gt;" style="rhombus;whiteSpace=wrap;html=1;" vertex="1" parent="1">
          <mxGeometry x="723.75" y="1570" width="132.5" height="100" as="geometry" />
        </mxCell>
        <mxCell id="D-juihw1H2fN2JaXZUQW-25" style="edgeStyle=orthogonalEdgeStyle;rounded=0;orthogonalLoop=1;jettySize=auto;html=1;entryX=0.5;entryY=0;entryDx=0;entryDy=0;" edge="1" parent="1">
          <mxGeometry relative="1" as="geometry">
            <mxPoint x="555.75" y="1670" as="sourcePoint" />
            <mxPoint x="556" y="1770" as="targetPoint" />
          </mxGeometry>
        </mxCell>
        <mxCell id="D-juihw1H2fN2JaXZUQW-26" value="จริง" style="edgeLabel;html=1;align=center;verticalAlign=middle;resizable=0;points=[];" vertex="1" connectable="0" parent="D-juihw1H2fN2JaXZUQW-25">
          <mxGeometry x="-0.1171" relative="1" as="geometry">
            <mxPoint as="offset" />
          </mxGeometry>
        </mxCell>
        <mxCell id="D-juihw1H2fN2JaXZUQW-27" style="edgeStyle=orthogonalEdgeStyle;rounded=0;orthogonalLoop=1;jettySize=auto;html=1;" edge="1" parent="1">
          <mxGeometry relative="1" as="geometry">
            <mxPoint x="789.5" y="1670" as="sourcePoint" />
            <mxPoint x="789.5" y="1770" as="targetPoint" />
          </mxGeometry>
        </mxCell>
        <mxCell id="D-juihw1H2fN2JaXZUQW-28" value="จริง" style="edgeLabel;html=1;align=center;verticalAlign=middle;resizable=0;points=[];" vertex="1" connectable="0" parent="D-juihw1H2fN2JaXZUQW-27">
          <mxGeometry x="-0.08" relative="1" as="geometry">
            <mxPoint as="offset" />
          </mxGeometry>
        </mxCell>
        <mxCell id="D-juihw1H2fN2JaXZUQW-29" style="edgeStyle=orthogonalEdgeStyle;rounded=0;orthogonalLoop=1;jettySize=auto;html=1;" edge="1" parent="1">
          <mxGeometry relative="1" as="geometry">
            <mxPoint x="556.3" y="1830" as="sourcePoint" />
            <mxPoint x="556.25" y="1930" as="targetPoint" />
          </mxGeometry>
        </mxCell>
        <mxCell id="D-juihw1H2fN2JaXZUQW-30" style="edgeStyle=orthogonalEdgeStyle;rounded=0;orthogonalLoop=1;jettySize=auto;html=1;entryX=0.5;entryY=0;entryDx=0;entryDy=0;" edge="1" parent="1">
          <mxGeometry relative="1" as="geometry">
            <mxPoint x="796.3000000000002" y="1830" as="sourcePoint" />
            <mxPoint x="796.25" y="1920" as="targetPoint" />
          </mxGeometry>
        </mxCell>
        <mxCell id="D-juihw1H2fN2JaXZUQW-31" style="edgeStyle=orthogonalEdgeStyle;rounded=0;orthogonalLoop=1;jettySize=auto;html=1;entryX=0.5;entryY=0;entryDx=0;entryDy=0;" edge="1" parent="1" source="D-juihw1H2fN2JaXZUQW-32" target="D-juihw1H2fN2JaXZUQW-24">
          <mxGeometry relative="1" as="geometry" />
        </mxCell>
        <mxCell id="D-juihw1H2fN2JaXZUQW-32" value="" style="ellipse;whiteSpace=wrap;html=1;aspect=fixed;" vertex="1" parent="1">
          <mxGeometry x="780" y="1510" width="20" height="20" as="geometry" />
        </mxCell>
        <mxCell id="D-juihw1H2fN2JaXZUQW-33" style="edgeStyle=orthogonalEdgeStyle;rounded=0;orthogonalLoop=1;jettySize=auto;html=1;entryX=0.5;entryY=0;entryDx=0;entryDy=0;" edge="1" parent="1" target="D-juihw1H2fN2JaXZUQW-35">
          <mxGeometry relative="1" as="geometry">
            <mxPoint x="556.25" y="1470" as="sourcePoint" />
          </mxGeometry>
        </mxCell>
        <mxCell id="D-juihw1H2fN2JaXZUQW-34" style="edgeStyle=orthogonalEdgeStyle;rounded=0;orthogonalLoop=1;jettySize=auto;html=1;entryX=0.5;entryY=0;entryDx=0;entryDy=0;" edge="1" parent="1" source="D-juihw1H2fN2JaXZUQW-35">
          <mxGeometry relative="1" as="geometry">
            <mxPoint x="556.25" y="1570" as="targetPoint" />
          </mxGeometry>
        </mxCell>
        <mxCell id="D-juihw1H2fN2JaXZUQW-35" value="" style="ellipse;whiteSpace=wrap;html=1;aspect=fixed;" vertex="1" parent="1">
          <mxGeometry x="546.25" y="1510" width="20" height="20" as="geometry" />
        </mxCell>
        <mxCell id="D-juihw1H2fN2JaXZUQW-36" value="" style="endArrow=classic;html=1;rounded=0;entryX=0;entryY=0.5;entryDx=0;entryDy=0;" edge="1" parent="1" target="D-juihw1H2fN2JaXZUQW-35">
          <mxGeometry width="50" height="50" relative="1" as="geometry">
            <mxPoint x="555.75" y="1990" as="sourcePoint" />
            <mxPoint x="420" y="1460" as="targetPoint" />
            <Array as="points">
              <mxPoint x="556" y="2060" />
              <mxPoint x="420" y="2060" />
              <mxPoint x="420" y="1520" />
            </Array>
          </mxGeometry>
        </mxCell>
        <mxCell id="D-juihw1H2fN2JaXZUQW-37" style="edgeStyle=orthogonalEdgeStyle;rounded=0;orthogonalLoop=1;jettySize=auto;html=1;" edge="1" parent="1" source="D-juihw1H2fN2JaXZUQW-38" target="D-juihw1H2fN2JaXZUQW-18">
          <mxGeometry relative="1" as="geometry" />
        </mxCell>
        <mxCell id="D-juihw1H2fN2JaXZUQW-38" value="" style="ellipse;whiteSpace=wrap;html=1;aspect=fixed;" vertex="1" parent="1">
          <mxGeometry x="650" y="2140" width="20" height="20" as="geometry" />
        </mxCell>
        <mxCell id="D-juihw1H2fN2JaXZUQW-39" value="" style="endArrow=classic;html=1;rounded=0;entryX=0;entryY=0.5;entryDx=0;entryDy=0;" edge="1" parent="1" target="D-juihw1H2fN2JaXZUQW-32">
          <mxGeometry width="50" height="50" relative="1" as="geometry">
            <mxPoint x="800" y="1980" as="sourcePoint" />
            <mxPoint x="700" y="1470" as="targetPoint" />
            <Array as="points">
              <mxPoint x="800" y="2060" />
              <mxPoint x="700" y="2060" />
              <mxPoint x="700" y="1520" />
            </Array>
          </mxGeometry>
        </mxCell>
        <mxCell id="D-juihw1H2fN2JaXZUQW-40" style="edgeStyle=orthogonalEdgeStyle;rounded=0;orthogonalLoop=1;jettySize=auto;html=1;entryX=0.5;entryY=0;entryDx=0;entryDy=0;" edge="1" parent="1" source="D-juihw1H2fN2JaXZUQW-41" target="D-juihw1H2fN2JaXZUQW-52">
          <mxGeometry relative="1" as="geometry" />
        </mxCell>
        <mxCell id="D-juihw1H2fN2JaXZUQW-41" value="&lt;span style=&quot;font-size: 17px;&quot;&gt;แสดงค่า&amp;nbsp; N&lt;/span&gt;" style="rounded=0;whiteSpace=wrap;html=1;" vertex="1" parent="1">
          <mxGeometry x="490" y="670" width="120" height="60" as="geometry" />
        </mxCell>
        <mxCell id="D-juihw1H2fN2JaXZUQW-42" value="&lt;span style=&quot;font-size: 17px;&quot;&gt;แสดงค่า i&lt;/span&gt;" style="rounded=0;whiteSpace=wrap;html=1;" vertex="1" parent="1">
          <mxGeometry x="490" y="1770" width="120" height="60" as="geometry" />
        </mxCell>
        <mxCell id="D-juihw1H2fN2JaXZUQW-43" value="&lt;span style=&quot;font-size: 17px;&quot;&gt;i บวกเพิ่มทีละ 2 จนถึงตัวแปร N&lt;/span&gt;" style="rounded=0;whiteSpace=wrap;html=1;" vertex="1" parent="1">
          <mxGeometry x="496.25" y="1930" width="120" height="60" as="geometry" />
        </mxCell>
        <mxCell id="D-juihw1H2fN2JaXZUQW-44" value="&lt;span style=&quot;font-size: 17px;&quot;&gt;แสดงค่า i&amp;nbsp;&lt;/span&gt;" style="rounded=0;whiteSpace=wrap;html=1;" vertex="1" parent="1">
          <mxGeometry x="736.25" y="1770" width="120" height="60" as="geometry" />
        </mxCell>
        <mxCell id="D-juihw1H2fN2JaXZUQW-45" value="&lt;span style=&quot;font-size: 17px;&quot;&gt;N ลบทีละ 2 จนถึง 0&lt;/span&gt;" style="rounded=0;whiteSpace=wrap;html=1;" vertex="1" parent="1">
          <mxGeometry x="736.25" y="1920" width="120" height="60" as="geometry" />
        </mxCell>
        <mxCell id="D-juihw1H2fN2JaXZUQW-46" style="edgeStyle=orthogonalEdgeStyle;rounded=0;orthogonalLoop=1;jettySize=auto;html=1;exitX=0.5;exitY=1;exitDx=0;exitDy=0;entryX=1;entryY=0.5;entryDx=0;entryDy=0;" edge="1" parent="1" source="D-juihw1H2fN2JaXZUQW-47" target="D-juihw1H2fN2JaXZUQW-54">
          <mxGeometry relative="1" as="geometry">
            <mxPoint x="900" y="560" as="targetPoint" />
            <Array as="points">
              <mxPoint x="740" y="1040" />
              <mxPoint x="901" y="1040" />
              <mxPoint x="901" y="590" />
            </Array>
          </mxGeometry>
        </mxCell>
        <mxCell id="D-juihw1H2fN2JaXZUQW-47" value="&lt;span style=&quot;font-size: 17px;&quot;&gt;แสดงข้อความ&lt;/span&gt;&lt;div&gt;&lt;span style=&quot;font-size: 17px;&quot;&gt;ให้ผู้ใช้พิมตัวเลข&lt;/span&gt;&lt;/div&gt;" style="rounded=0;whiteSpace=wrap;html=1;" vertex="1" parent="1">
          <mxGeometry x="680" y="960" width="120" height="60" as="geometry" />
        </mxCell>
        <mxCell id="D-juihw1H2fN2JaXZUQW-48" style="edgeStyle=orthogonalEdgeStyle;rounded=0;orthogonalLoop=1;jettySize=auto;html=1;" edge="1" parent="1" source="D-juihw1H2fN2JaXZUQW-52" target="D-juihw1H2fN2JaXZUQW-47">
          <mxGeometry relative="1" as="geometry" />
        </mxCell>
        <mxCell id="D-juihw1H2fN2JaXZUQW-49" value="เท็จ" style="edgeLabel;html=1;align=center;verticalAlign=middle;resizable=0;points=[];" vertex="1" connectable="0" parent="D-juihw1H2fN2JaXZUQW-48">
          <mxGeometry x="-0.1892" y="-2" relative="1" as="geometry">
            <mxPoint as="offset" />
          </mxGeometry>
        </mxCell>
        <mxCell id="D-juihw1H2fN2JaXZUQW-50" style="edgeStyle=orthogonalEdgeStyle;rounded=0;orthogonalLoop=1;jettySize=auto;html=1;entryX=0.5;entryY=0;entryDx=0;entryDy=0;" edge="1" parent="1" source="D-juihw1H2fN2JaXZUQW-52" target="D-juihw1H2fN2JaXZUQW-10">
          <mxGeometry relative="1" as="geometry" />
        </mxCell>
        <mxCell id="D-juihw1H2fN2JaXZUQW-51" value="จริง" style="edgeLabel;html=1;align=center;verticalAlign=middle;resizable=0;points=[];" vertex="1" connectable="0" parent="D-juihw1H2fN2JaXZUQW-50">
          <mxGeometry x="-0.2332" y="5" relative="1" as="geometry">
            <mxPoint as="offset" />
          </mxGeometry>
        </mxCell>
        <mxCell id="D-juihw1H2fN2JaXZUQW-52" value="&lt;span style=&quot;font-size: 14px;&quot;&gt;&amp;nbsp;N &amp;gt;= 0 ใช่หรือไม่&amp;nbsp;&lt;br&gt;&lt;/span&gt;" style="rhombus;whiteSpace=wrap;html=1;" vertex="1" parent="1">
          <mxGeometry x="483.75" y="840" width="132.5" height="100" as="geometry" />
        </mxCell>
        <mxCell id="D-juihw1H2fN2JaXZUQW-53" style="edgeStyle=orthogonalEdgeStyle;rounded=0;orthogonalLoop=1;jettySize=auto;html=1;exitX=0.5;exitY=1;exitDx=0;exitDy=0;entryX=0.5;entryY=0;entryDx=0;entryDy=0;" edge="1" parent="1" source="D-juihw1H2fN2JaXZUQW-54" target="D-juihw1H2fN2JaXZUQW-41">
          <mxGeometry relative="1" as="geometry" />
        </mxCell>
        <mxCell id="D-juihw1H2fN2JaXZUQW-54" value="" style="ellipse;whiteSpace=wrap;html=1;aspect=fixed;" vertex="1" parent="1">
          <mxGeometry x="540" y="580" width="20" height="20" as="geometry" />
        </mxCell>
        <mxCell id="D-juihw1H2fN2JaXZUQW-55" style="edgeStyle=orthogonalEdgeStyle;rounded=0;orthogonalLoop=1;jettySize=auto;html=1;entryX=0.5;entryY=0;entryDx=0;entryDy=0;" edge="1" parent="1">
          <mxGeometry relative="1" as="geometry">
            <mxPoint x="549.25" y="360" as="sourcePoint" />
            <mxPoint x="549.25" y="410" as="targetPoint" />
          </mxGeometry>
        </mxCell>
        <mxCell id="D-juihw1H2fN2JaXZUQW-56" style="edgeStyle=orthogonalEdgeStyle;rounded=0;orthogonalLoop=1;jettySize=auto;html=1;entryX=0.5;entryY=0;entryDx=0;entryDy=0;" edge="1" parent="1" source="D-juihw1H2fN2JaXZUQW-57" target="D-juihw1H2fN2JaXZUQW-54">
          <mxGeometry relative="1" as="geometry" />
        </mxCell>
        <mxCell id="D-juihw1H2fN2JaXZUQW-57" value="&lt;font style=&quot;font-size: 18px;&quot;&gt;ประกาศ&lt;/font&gt;&lt;div&gt;&lt;font style=&quot;font-size: 18px;&quot;&gt;ตัวแปร N&amp;nbsp;&lt;/font&gt;&lt;/div&gt;" style="shape=parallelogram;perimeter=parallelogramPerimeter;whiteSpace=wrap;html=1;fixedSize=1;" vertex="1" parent="1">
          <mxGeometry x="490" y="410" width="120" height="60" as="geometry" />
        </mxCell>
      </root>
    </mxGraphModel>
  </diagram>
</mxfile>
